<?xml version="1.0" standalone="no"?>
<!DOCTYPE svg PUBLIC "-//W3C//DTD SVG 20010904//EN"
 "http://www.w3.org/TR/2001/REC-SVG-20010904/DTD/svg10.dtd">
<svg version="1.0" xmlns="http://www.w3.org/2000/svg"
 width="1024.000000pt" height="1024.000000pt" viewBox="0 0 1024.000000 1024.000000"
 preserveAspectRatio="xMidYMid meet">

<g transform="translate(0.000000,1024.000000) scale(0.100000,-0.100000)"
fill="#000000" stroke="none">
<path d="M4886 7665 c-138 -29 -278 -116 -413 -258 -102 -108 -179 -265 -203
-417 -22 -134 7 -315 70 -441 98 -195 274 -354 451 -407 286 -87 537 -28 751
176 108 103 170 199 208 320 102 327 28 616 -218 844 -146 135 -274 188 -462
194 -74 2 -139 -2 -184 -11z m348 -233 c94 -44 158 -94 222 -176 79 -100 79
-100 -73 -93 -226 10 -360 62 -480 183 -40 41 -73 77 -73 82 0 21 117 41 225
38 100 -2 116 -5 179 -34z m-547 -198 c39 -49 185 -156 274 -200 155 -77 278
-104 470 -104 70 0 130 -4 133 -9 10 -15 -13 -176 -34 -236 -90 -262 -350
-408 -623 -350 -142 30 -241 96 -321 213 -143 209 -137 521 13 673 25 26 49
47 53 48 4 1 20 -15 35 -35z"/>
<path d="M5334 5938 c-28 -29 -78 -94 -112 -145 -34 -51 -82 -117 -106 -147
-25 -29 -61 -77 -81 -105 -44 -61 -45 -61 -112 48 -49 79 -139 207 -227 324
l-51 67 -115 -6 c-220 -11 -339 -33 -471 -89 -104 -44 -179 -95 -282 -194
-180 -173 -282 -360 -322 -590 -22 -122 -22 -1167 0 -1258 20 -86 80 -221 156
-349 155 -264 452 -475 785 -558 200 -50 245 -56 484 -63 352 -10 756 28 933
88 176 59 386 185 491 294 105 109 216 304 287 505 l34 95 3 560 c2 380 0 584
-8 635 -35 236 -145 463 -292 607 -218 212 -465 313 -809 328 l-135 6 -50 -53z
m-751 -254 c85 -113 245 -367 289 -459 l33 -70 7 -955 c4 -525 10 -986 14
-1024 l6 -68 -129 7 c-179 9 -271 22 -401 55 -283 73 -478 216 -619 451 -67
112 -104 211 -123 330 -19 118 -8 1090 13 1188 9 40 21 78 26 85 5 6 16 36 25
67 9 31 34 80 56 109 22 29 42 61 45 71 3 10 14 21 24 24 10 3 24 17 31 30 7
14 17 25 20 25 4 0 30 18 58 40 98 78 277 143 452 165 30 4 62 11 70 16 8 5
20 7 25 6 6 -2 40 -43 78 -93z m1076 65 c143 -13 238 -46 357 -124 263 -171
381 -381 398 -710 4 -60 2 -319 -2 -575 l-9 -465 -28 -80 c-63 -183 -141 -310
-258 -422 -70 -67 -104 -91 -189 -132 -167 -81 -387 -128 -654 -138 l-161 -6
-6 33 c-4 18 -7 47 -7 65 0 32 1 33 56 40 69 8 145 34 249 85 98 47 205 142
268 238 125 190 147 243 147 346 0 34 3 111 6 172 l7 110 47 17 c79 28 141 78
179 143 19 32 40 65 47 71 20 20 55 123 65 188 15 102 11 434 -6 491 -26 89
-126 160 -238 170 -64 6 -112 -17 -139 -67 -22 -40 -23 -71 -4 -107 34 -64 93
-91 143 -63 12 6 24 11 27 11 3 0 6 -102 6 -226 0 -223 0 -227 -26 -278 -33
-66 -56 -90 -110 -115 -93 -44 -209 -10 -274 81 -44 61 -50 93 -52 316 l-3
202 44 0 c37 0 49 5 77 35 89 95 25 225 -111 225 -80 0 -141 -43 -187 -130
-23 -44 -23 -50 -23 -335 l0 -290 34 -80 c45 -105 126 -188 224 -230 l67 -29
0 -142 c0 -214 -33 -300 -161 -418 -71 -66 -166 -121 -262 -151 l-72 -23 -5
21 c-11 45 5 1817 16 1825 22 14 103 121 125 163 21 42 36 63 105 147 17 20
41 54 53 74 29 49 67 78 100 78 14 0 77 -5 140 -11z"/>
<path d="M4208 5026 c-104 -37 -196 -122 -218 -201 -17 -61 -8 -160 19 -214
58 -113 155 -172 283 -174 58 -1 76 4 140 36 l74 38 48 98 c45 90 48 102 44
157 -6 83 -46 165 -98 203 -89 64 -207 87 -292 57z m146 -206 c61 -23 66 -87
11 -146 -27 -28 -39 -34 -75 -34 -34 0 -48 6 -76 34 -42 42 -45 82 -8 125 22
27 32 31 74 31 27 0 60 -4 74 -10z"/>
<path d="M4310 4113 c-8 -3 -25 -15 -37 -26 -28 -25 -31 -91 -8 -124 32 -45
153 -54 175 -13 13 24 13 79 -1 118 -14 41 -78 64 -129 45z"/>
</g>
</svg>
